<svg xmlns="http://www.w3.org/2000/svg" viewBox="0 0 48 48" width="48" height="48">
  <!-- Faceplate -->
  <rect x="7" y="2" width="34" height="44" rx="2" fill="#1a1a1a" stroke="#3a3a3a" stroke-width="0.5"/>

  <!-- OLED display -->
  <rect x="10" y="5" width="28" height="7" rx="0.5" fill="#000"/>
  <rect x="11" y="6" width="26" height="2" fill="#4dd0e1"/>
  <rect x="13" y="9" width="22" height="2" fill="#4dd0e1"/>

  <!-- Top row: 3 small knobs -->
  <circle cx="15" cy="18" r="2.2" fill="#2a2a2a" stroke="#555" stroke-width="0.4"/>
  <line x1="15" y1="18" x2="15" y2="16.2" stroke="#fff" stroke-width="0.6" stroke-linecap="round"/>
  <circle cx="24" cy="18" r="2.2" fill="#2a2a2a" stroke="#555" stroke-width="0.4"/>
  <line x1="24" y1="18" x2="24" y2="16.2" stroke="#fff" stroke-width="0.6" stroke-linecap="round"/>
  <circle cx="33" cy="18" r="2.2" fill="#2a2a2a" stroke="#555" stroke-width="0.4"/>
  <line x1="33" y1="18" x2="33" y2="16.2" stroke="#fff" stroke-width="0.6" stroke-linecap="round"/>

  <!-- Bottom row: 2 larger knobs -->
  <circle cx="19" cy="25" r="2.8" fill="#1f1f1f" stroke="#555" stroke-width="0.4"/>
  <circle cx="29" cy="25" r="2.8" fill="#1f1f1f" stroke="#555" stroke-width="0.4"/>

  <!-- Left jack cluster: 4 columns × 3 rows = 12 inputs -->
  <g fill="#0a0a0a" stroke="#666" stroke-width="0.3">
    <circle cx="11" cy="33" r="1.3"/>
    <circle cx="14" cy="33" r="1.3"/>
    <circle cx="17" cy="33" r="1.3"/>
    <circle cx="20" cy="33" r="1.3"/>
    <circle cx="11" cy="37" r="1.3"/>
    <circle cx="14" cy="37" r="1.3"/>
    <circle cx="17" cy="37" r="1.3"/>
    <circle cx="20" cy="37" r="1.3"/>
    <circle cx="11" cy="41" r="1.3"/>
    <circle cx="14" cy="41" r="1.3"/>
    <circle cx="17" cy="41" r="1.3"/>
    <circle cx="20" cy="41" r="1.3"/>
  </g>

  <!-- Right jack cluster: 2 columns × 3 rows = 6 outputs -->
  <g fill="#0a0a0a" stroke="#666" stroke-width="0.3">
    <circle cx="31" cy="33" r="1.3"/>
    <circle cx="35" cy="33" r="1.3"/>
    <circle cx="31" cy="37" r="1.3"/>
    <circle cx="35" cy="37" r="1.3"/>
    <circle cx="31" cy="41" r="1.3"/>
    <circle cx="35" cy="41" r="1.3"/>
  </g>
</svg>
